<svg width="24" height="24" viewBox="0 0 24 24" fill="none" xmlns="http://www.w3.org/2000/svg">
<g clip-path="url(#clip0_24531_5373)">
<path d="M10.2338 8.14624C10.2338 9.0928 11.0569 9.86023 12.0724 9.86023C13.088 9.86023 13.9111 9.0928 13.9111 8.14624C13.9111 7.19968 13.088 6.43231 12.0724 6.43231C11.0569 6.43231 10.2338 7.19968 10.2338 8.14624Z" fill="#D2D5DD"/>
<path fill-rule="evenodd" clip-rule="evenodd" d="M8 2C4.68629 2 2 4.68629 2 8V16C2 19.3137 4.68629 22 8 22H16C19.3137 22 22 19.3137 22 16V8C22 4.68629 19.3137 2 16 2H8ZM7.62436 8.14617C7.62436 5.85633 9.61571 4 12.0724 4C14.5292 4 16.5206 5.85633 16.5206 8.14617C16.5206 10.4361 14.5292 12.2925 12.0724 12.2925C9.61571 12.2925 7.62436 10.4361 7.62436 8.14617ZM16.5472 14.4252C16.4907 14.4674 15.4236 15.2535 13.6427 15.5916L16.3307 18.0748C16.8034 18.5147 16.804 19.2285 16.3321 19.6691C15.8602 20.1097 15.0946 20.1104 14.6216 19.6704L12.012 17.3016L9.64177 19.6552C9.4046 19.8846 9.08805 20 8.77109 20C8.46897 20 8.16645 19.8952 7.93169 19.6842C7.45075 19.252 7.43691 18.5384 7.90062 18.0902L10.4519 15.6048C8.62134 15.2746 7.51009 14.468 7.45295 14.4252C6.93171 14.0357 6.84811 13.3262 7.26591 12.8404C7.6839 12.3547 8.44492 12.2767 8.96616 12.6662C8.97719 12.6744 10.1394 13.4883 12.012 13.4895C13.8847 13.4883 15.0228 12.6744 15.0338 12.6662C15.5551 12.2767 16.3163 12.3547 16.7341 12.8404C17.1519 13.3262 17.0683 14.0357 16.5472 14.4252Z" fill="#D2D5DD"/>
</g>
<defs>
<clipPath id="clip0_24531_5373">
<rect width="24" height="24" fill="white"/>
</clipPath>
</defs>
</svg>
