<svg width="24" height="24" viewBox="0 0 24 24" fill="none" xmlns="http://www.w3.org/2000/svg">
<path fill-rule="evenodd" clip-rule="evenodd" d="M2 8C2 4.68652 4.68652 2 8 2H16C19.3135 2 22 4.68652 22 8V16C22 19.3135 19.3135 22 16 22H8C4.68652 22 2 19.3135 2 16V8ZM17.3438 13.4473C17.7139 13.7778 18.0845 14.1089 18.4121 14.4795C18.5415 14.626 18.6665 14.7754 18.7769 14.9346C18.835 15.0181 18.8892 15.104 18.938 15.1934C19.0425 15.3848 19.0439 15.5859 18.9727 15.7383C18.9058 15.8809 18.7754 15.981 18.606 15.9917L16.4209 15.9912C15.8569 16.0356 15.4077 15.8208 15.0293 15.4575C14.7271 15.1675 14.4468 14.8584 14.1558 14.5586C14.0366 14.4355 13.9116 14.3198 13.7622 14.2285C13.5962 14.1265 13.4419 14.0991 13.3086 14.1455C13.2031 14.1821 13.1104 14.2656 13.0352 14.3955C12.8613 14.6938 12.8213 15.0244 12.8047 15.3564C12.7812 15.8418 12.6255 15.9688 12.1089 15.9917C11.0044 16.0405 9.95654 15.8823 8.98242 15.3574C8.12305 14.8945 7.45801 14.2417 6.87842 13.502C5.75 12.0601 4.88574 10.4775 4.10938 8.84912C3.93457 8.48242 4.0625 8.28662 4.4917 8.27881C5.20459 8.26611 5.91797 8.26758 6.63086 8.27832C6.9209 8.28271 7.11279 8.43896 7.22461 8.69727C7.60986 9.59082 8.08203 10.4409 8.67432 11.229L8.78369 11.3721C8.90918 11.5317 9.04541 11.6826 9.22217 11.7969C9.4751 11.9604 9.66797 11.9062 9.7876 11.6401C9.86377 11.4707 9.89697 11.2896 9.91357 11.1084C9.97021 10.4873 9.97705 9.86621 9.87891 9.24756C9.81787 8.86035 9.58643 8.61035 9.17725 8.53711C8.96826 8.49951 8.99902 8.42676 9.10059 8.31445C9.27637 8.12061 9.44141 8.00049 9.771 8.00049L12.2397 8C12.6284 8.07178 12.7158 8.23633 12.7686 8.60596L12.771 11.1909C12.7661 11.334 12.8472 11.7578 13.1191 11.8511C13.3374 11.9189 13.4814 11.7539 13.6118 11.624C14.2036 11.0317 14.6255 10.333 15.0034 9.60986C15.1699 9.29102 15.314 8.96094 15.4536 8.63037C15.5024 8.51562 15.5635 8.42822 15.6455 8.36816C15.7378 8.30029 15.8564 8.26758 16.0117 8.26953L18.3887 8.27246C18.4585 8.27246 18.5298 8.27295 18.5991 8.28418C18.8101 8.31836 18.9404 8.37939 18.9985 8.4834C19.0503 8.57666 19.0439 8.70508 18.9854 8.87939C18.7979 9.43555 18.4399 9.90283 18.0835 10.3677L18.041 10.4233C17.6436 10.9409 17.2202 11.4399 16.8271 11.96C16.4658 12.4346 16.4941 12.6738 16.9429 13.0864C17.0752 13.208 17.2095 13.3276 17.3438 13.4473Z" fill="#D2D5DD"/>
</svg>
