<svg width="16" height="12" viewBox="0 0 16 12" fill="none" xmlns="http://www.w3.org/2000/svg">
<g clip-path="url(#clip0_24531_3910)">
<path fill-rule="evenodd" clip-rule="evenodd" d="M0 0H22.8V0.923438H0V0ZM0 1.84688H22.8V2.77031H0V1.84688ZM0 3.69141H22.8V4.61719H0V3.69141ZM0 5.53828H22.8V6.46172H0V5.53828ZM0 7.38516H22.8V8.30859H0V7.38516ZM0 9.22969H22.8V10.1531H0V9.22969ZM0 11.0766H22.8V12H0V11.0766Z" fill="#D52B1E"/>
<path fill-rule="evenodd" clip-rule="evenodd" d="M0 0.923462H22.8V1.8469H0V0.923462ZM0 2.77034H22.8V3.69143H0V2.77034ZM0 4.61487H22.8V5.53831H0V4.61487ZM0 6.46174H22.8V7.38518H0V6.46174ZM0 8.30862H22.8V9.23206H0V8.30862ZM0 10.1532H22.8V11.0766H0V10.1532Z" fill="white"/>
<path fill-rule="evenodd" clip-rule="evenodd" d="M0 0H9.11953V6.46172H0V0Z" fill="#0039A6"/>
<path fill-rule="evenodd" clip-rule="evenodd" d="M0.759277 0.27655L0.843652 0.532019H1.11084L0.895215 0.68905L0.977246 0.946862L0.759277 0.787488L0.543652 0.944519L0.625684 0.68905L0.407715 0.532019H0.67959L0.759277 0.27655ZM2.28037 0.27655L2.3624 0.532019H2.63193L2.41396 0.68905L2.496 0.946862L2.28037 0.787488L2.0624 0.944519L2.14443 0.68905L1.92881 0.532019H2.196L2.28037 0.27655ZM3.79912 0.27655L3.8835 0.532019H4.14834L3.93272 0.68905L4.01475 0.946862L3.79678 0.787488L3.58115 0.944519L3.66318 0.68905L3.44522 0.532019H3.71475L3.79912 0.27655ZM5.32022 0.27655L5.40225 0.532019H5.67178L5.45381 0.68905L5.53818 0.946862L5.32022 0.787488L5.10225 0.944519L5.18662 0.68905L4.96865 0.532019H5.23584L5.32022 0.27655ZM6.83897 0.27655L6.92334 0.532019H7.19053L6.9749 0.68905L7.05693 0.946862L6.83897 0.787488L6.62334 0.944519L6.70537 0.68905L6.48975 0.532019H6.75693L6.83897 0.27655ZM8.36006 0.27655L8.44209 0.532019H8.71162L8.49365 0.68905L8.57803 0.946862L8.36006 0.787488L8.14209 0.944519L8.22647 0.68905L8.0085 0.532019H8.27803L8.36006 0.27655ZM1.521 0.923425L1.60303 1.17889H1.87256L1.65459 1.33592L1.73428 1.59139L1.52334 1.43436L1.30537 1.59139L1.38271 1.33592L1.17178 1.17889H1.43896L1.521 0.923425ZM3.03975 0.923425L3.12412 1.17889H3.39131L3.17334 1.33592L3.25771 1.59139L3.03975 1.43436L2.82178 1.59139L2.90615 1.33592L2.68818 1.17889H2.95772L3.03975 0.923425ZM4.56084 0.923425L4.64287 1.17889H4.9124L4.69443 1.33592L4.77647 1.59139L4.56084 1.43436L4.34287 1.59139L4.4249 1.33592L4.20928 1.17889H4.47647L4.56084 0.923425ZM6.07959 0.923425L6.16397 1.17889H6.43115L6.21318 1.33592L6.29756 1.59139L6.07959 1.43436L5.86397 1.59139L5.946 1.33592L5.72803 1.17889H5.9999L6.07959 0.923425ZM7.60068 0.923425L7.68272 1.17889H7.95225L7.73428 1.33592L7.81631 1.59139L7.60068 1.43436L7.38272 1.59139L7.46475 1.33592L7.24912 1.17889H7.51631L7.60068 0.923425ZM0.759277 1.56796L0.843652 1.82811H1.11084L0.895215 1.98514L0.977246 2.24061L0.759277 2.08124L0.543652 2.24061L0.625684 1.9828L0.407715 1.82577H0.67959L0.759277 1.56796ZM2.28037 1.56796L2.3624 1.82577H2.63193L2.41396 1.9828L2.496 2.23827L2.28037 2.07889L2.0624 2.23827L2.14443 1.98046L1.92881 1.82342H2.196L2.28037 1.56796ZM3.79912 1.56796L3.8835 1.82577H4.14834L3.93272 1.9828L4.01475 2.23827L3.79678 2.07889L3.58115 2.23827L3.66318 1.98046L3.44522 1.82342H3.71475L3.79912 1.56796ZM5.32022 1.56796L5.40225 1.82577H5.67178L5.45381 1.9828L5.53818 2.23827L5.32022 2.07889L5.10225 2.23827L5.18662 1.98046L4.96865 1.82342H5.23584L5.32022 1.56796ZM6.83897 1.56796L6.92334 1.82577H7.19053L6.9749 1.9828L7.05693 2.23827L6.83897 2.07889L6.62334 2.23827L6.70537 1.98046L6.48975 1.82342H6.75693L6.83897 1.56796ZM8.36006 1.56796L8.44209 1.82577H8.71162L8.49365 1.9828L8.57803 2.23827L8.36006 2.07889L8.14209 2.23827L8.22647 1.98046L8.0085 1.82342H8.27803L8.36006 1.56796ZM1.521 2.21483L1.60303 2.4703H1.87256L1.65459 2.62733L1.73662 2.88514L1.521 2.72577L1.30303 2.8828L1.38506 2.62733L1.16943 2.4703H1.43662L1.521 2.21483ZM3.03975 2.21483L3.12412 2.4703H3.39131L3.17334 2.62733L3.25771 2.88514L3.03975 2.72577L2.82178 2.8828L2.90615 2.62733L2.68818 2.4703H2.95772L3.03975 2.21483ZM4.56084 2.21483L4.64287 2.4703H4.9124L4.69443 2.62733L4.77647 2.88514L4.56084 2.72577L4.34287 2.8828L4.4249 2.62733L4.20928 2.4703H4.47647L4.56084 2.21483ZM6.07959 2.21483L6.16397 2.4703H6.43115L6.21553 2.62733L6.29756 2.88514L6.07959 2.72577L5.86397 2.8828L5.946 2.62733L5.72803 2.4703H5.9999L6.07959 2.21483ZM7.60068 2.21483L7.68272 2.4703H7.95225L7.73428 2.62733L7.81631 2.88514L7.60068 2.72577L7.38272 2.8828L7.46475 2.62733L7.24912 2.4703H7.51631L7.60068 2.21483ZM0.759277 2.86171L0.843652 3.11717H1.11084L0.895215 3.2742L0.977246 3.53202L0.759277 3.37264L0.543652 3.52967L0.625684 3.2742L0.407715 3.11717H0.67959L0.759277 2.86171ZM2.28037 2.86171L2.3624 3.11717H2.63193L2.41396 3.2742L2.496 3.52967L2.28037 3.37264L2.0624 3.52967L2.14443 3.2742L1.92881 3.11717H2.196L2.28037 2.86171ZM3.79912 2.86171L3.8835 3.11717H4.14834L3.93272 3.2742L4.01475 3.53202L3.79678 3.37264L3.58115 3.52967L3.66318 3.2742L3.44522 3.11717H3.71475L3.79912 2.86171ZM5.32022 2.86171L5.40225 3.11717H5.67178L5.45381 3.2742L5.53818 3.53202L5.32022 3.37264L5.10225 3.52967L5.18662 3.2742L4.96865 3.11717H5.23584L5.32022 2.86171ZM6.83897 2.86171L6.92334 3.11717H7.19053L6.9749 3.2742L7.05693 3.53202L6.83897 3.37264L6.62334 3.52967L6.70537 3.2742L6.48975 3.11717H6.75693L6.83897 2.86171ZM8.36006 2.86171L8.44209 3.11717H8.71162L8.49365 3.2742L8.57803 3.53202L8.36006 3.37264L8.14209 3.52967L8.22647 3.2742L8.0085 3.11717H8.27803L8.36006 2.86171ZM1.521 3.50858L1.60303 3.76405H1.87256L1.65459 3.92108L1.73662 4.17655L1.521 4.01717L1.30303 4.17655L1.38506 3.91874L1.16943 3.7617H1.43662L1.521 3.50858ZM3.03975 3.50858L3.12412 3.76405H3.39131L3.17334 3.92108L3.25771 4.17655L3.03975 4.01717L2.82178 4.17655L2.90615 3.91874L2.68818 3.7617H2.95772L3.03975 3.50858ZM4.56084 3.50858L4.64287 3.76405H4.9124L4.69443 3.92108L4.77647 4.17655L4.56084 4.01717L4.34287 4.17655L4.4249 3.91874L4.20928 3.7617H4.47647L4.56084 3.50858ZM6.07959 3.50858L6.16397 3.76405H6.43115L6.21553 3.92108L6.29756 4.17655L6.07959 4.01717L5.86397 4.17655L5.946 3.91874L5.72803 3.7617H5.9999L6.07959 3.50858ZM7.60068 3.50858L7.68272 3.76405H7.95225L7.73428 3.92108L7.81631 4.17655L7.60068 4.01717L7.38272 4.17655L7.46475 3.91874L7.24912 3.7617H7.51631L7.60068 3.50858ZM0.759277 4.15311L0.843652 4.41092H1.11084L0.895215 4.56795L0.977246 4.82108L0.759277 4.66405L0.543652 4.82108L0.625684 4.56561L0.407715 4.40858H0.67959L0.759277 4.15311ZM2.28037 4.15311L2.3624 4.41092H2.63193L2.41396 4.56795L2.49834 4.82108L2.28037 4.66405L2.0624 4.82108L2.14678 4.56561L1.92881 4.40858H2.196L2.28037 4.15311ZM3.79912 4.15311L3.8835 4.41092H4.14834L3.93272 4.56795L4.01475 4.82108L3.79678 4.66405L3.58115 4.82108L3.66318 4.56561L3.44522 4.40858H3.71475L3.79912 4.15311ZM5.32022 4.15311L5.40225 4.41092H5.67178L5.45381 4.56795L5.53818 4.82108L5.32022 4.66405L5.10225 4.82108L5.18662 4.56561L4.96865 4.40858H5.23584L5.32022 4.15311ZM6.83897 4.15311L6.92334 4.41092H7.19053L6.9749 4.56795L7.05693 4.82108L6.83897 4.66405L6.62334 4.82108L6.70537 4.56561L6.48975 4.40858H6.75693L6.83897 4.15311ZM8.36006 4.15311L8.44209 4.41092H8.71162L8.49365 4.56795L8.57803 4.82108L8.36006 4.66405L8.14209 4.82108L8.22647 4.56561L8.0085 4.40858H8.27803L8.36006 4.15311ZM1.521 4.79999L1.60303 5.05545H1.87256L1.65459 5.21248L1.73662 5.4703L1.521 5.31092L1.30303 5.46795L1.38506 5.21248L1.16943 5.05545H1.43662L1.521 4.79999ZM3.03975 4.79999L3.12412 5.05545H3.39131L3.17334 5.21248L3.25771 5.4703L3.03975 5.31092L2.82178 5.46795L2.90615 5.21248L2.68818 5.05545H2.95772L3.03975 4.79999ZM4.56084 4.79999L4.64287 5.05545H4.9124L4.69443 5.21248L4.77647 5.4703L4.56084 5.31092L4.34287 5.46795L4.4249 5.21248L4.20928 5.05545H4.47647L4.56084 4.79999ZM6.07959 4.79999L6.16397 5.05545H6.43115L6.21553 5.21248L6.29756 5.4703L6.07959 5.31092L5.86397 5.46795L5.946 5.21248L5.72803 5.05545H5.9999L6.07959 4.79999ZM7.60068 4.79999L7.68272 5.05545H7.95225L7.73428 5.21248L7.81631 5.4703L7.60068 5.31092L7.38272 5.46795L7.46475 5.21248L7.24912 5.05545H7.51631L7.60068 4.79999ZM0.759277 5.44686L0.843652 5.70233H1.11084L0.895215 5.85936L0.977246 6.11483L0.759277 5.9578L0.543652 6.11483L0.625684 5.85702L0.407715 5.69998H0.67959L0.759277 5.44686ZM2.28037 5.44686L2.3624 5.70233H2.63193L2.41396 5.85936L2.49834 6.11483L2.28037 5.9578L2.0624 6.11483L2.14678 5.85702L1.92881 5.69998H2.196L2.28037 5.44686ZM3.79912 5.44686L3.8835 5.70233H4.14834L3.9374 5.85936L4.01943 6.11483L3.80147 5.9578L3.58584 6.11483L3.66787 5.85702L3.4499 5.69998H3.71943L3.79912 5.44686ZM5.32022 5.44686L5.40225 5.70233H5.67178L5.45381 5.85936L5.53818 6.11483L5.32022 5.9578L5.10225 6.11483L5.18662 5.85702L4.96865 5.69998H5.23584L5.32022 5.44686ZM6.83897 5.44686L6.92334 5.70233H7.19053L6.9749 5.85936L7.05693 6.11483L6.83897 5.9578L6.62334 6.11483L6.70537 5.85702L6.48975 5.69998H6.75693L6.83897 5.44686ZM8.36006 5.44686L8.44209 5.70233H8.71162L8.49365 5.85936L8.57803 6.11483L8.36006 5.9578L8.14209 6.11483L8.22647 5.85702L8.0085 5.69998H8.27803L8.36006 5.44686Z" fill="white"/>
</g>
<defs>
<clipPath id="clip0_24531_3910">
<rect width="16" height="12" fill="white"/>
</clipPath>
</defs>
</svg>
