<svg width="16" height="12" viewBox="0 0 16 12" fill="none" xmlns="http://www.w3.org/2000/svg">
<g clip-path="url(#clip0_24531_3902)">
<path d="M-4 0H19.8217V12H-4V0Z" fill="#0039A6"/>
<path d="M-4 0V1.34063L17.158 12H19.8217V10.6594L-1.33635 0H-4ZM19.8217 0V1.34063L-1.33635 12H-4V10.6594L17.158 0H19.8217Z" fill="white"/>
<path d="M5.92646 0V12H9.89519V0H5.92646ZM-4 4.00078V7.99922H19.8217V4.00078H-4Z" fill="white"/>
<path d="M-4 4.8V7.2H19.8217V4.8H-4ZM6.71974 0V12H9.10191V0H6.71974ZM-4 12L3.93977 7.99922H5.71709L-2.22501 12H-4ZM-4 0L3.93977 4.00078H2.16478L-4 0.895313V0ZM10.1069 4.00078L18.0467 0H19.8217L11.8819 4.00078H10.1069ZM19.8217 12L11.8819 7.99922H13.6569L19.8217 11.1047V12Z" fill="#D52B1E"/>
</g>
<defs>
<clipPath id="clip0_24531_3902">
<rect width="16" height="12" fill="white"/>
</clipPath>
</defs>
</svg>
